<svg width="20" height="20" viewBox="0 0 20 20" fill="none" xmlns="http://www.w3.org/2000/svg">
<g id="ic-sttings">
<path id="Vector" d="M18.0729 14.1668H7.91669V12.8647C7.91669 12.4318 7.56838 12.0835 7.13544 12.0835H5.57294C5.13999 12.0835 4.79169 12.4318 4.79169 12.8647V14.1668H1.9271C1.78387 14.1668 1.66669 14.284 1.66669 14.4272V14.9481C1.66669 15.0913 1.78387 15.2085 1.9271 15.2085H4.79169V16.5106C4.79169 16.9435 5.13999 17.2918 5.57294 17.2918H7.13544C7.56838 17.2918 7.91669 16.9435 7.91669 16.5106V15.2085H18.0729C18.2162 15.2085 18.3334 15.0913 18.3334 14.9481V14.4272C18.3334 14.284 18.2162 14.1668 18.0729 14.1668ZM6.87502 16.2502H5.83335V13.1252H6.87502V16.2502ZM18.0729 4.79183H10V3.48975C10 3.0568 9.65171 2.7085 9.21877 2.7085H7.65627C7.22333 2.7085 6.87502 3.0568 6.87502 3.48975V4.79183H1.9271C1.78387 4.79183 1.66669 4.90902 1.66669 5.05225V5.57308C1.66669 5.71631 1.78387 5.8335 1.9271 5.8335H6.87502V7.13558C6.87502 7.56852 7.22333 7.91683 7.65627 7.91683H9.21877C9.65171 7.91683 10 7.56852 10 7.13558V5.8335H18.0729C18.2162 5.8335 18.3334 5.71631 18.3334 5.57308V5.05225C18.3334 4.90902 18.2162 4.79183 18.0729 4.79183ZM8.95835 6.87516H7.91669V3.75016H8.95835V6.87516ZM18.0729 9.47933H15.2084V8.17725C15.2084 7.7443 14.86 7.396 14.4271 7.396H12.8646C12.4317 7.396 12.0834 7.7443 12.0834 8.17725V9.47933H1.9271C1.78387 9.47933 1.66669 9.59652 1.66669 9.73975V10.2606C1.66669 10.4038 1.78387 10.521 1.9271 10.521H12.0834V11.8231C12.0834 12.256 12.4317 12.6043 12.8646 12.6043H14.4271C14.86 12.6043 15.2084 12.256 15.2084 11.8231V10.521H18.0729C18.2162 10.521 18.3334 10.4038 18.3334 10.2606V9.73975C18.3334 9.59652 18.2162 9.47933 18.0729 9.47933ZM14.1667 11.5627H13.125V8.43766H14.1667V11.5627Z" fill="#808C73"/>
</g>
</svg>
